# xmcd
#
# Track frame offsets:
#	150
#	20400
#	37770
#	50720
#	67628
#	87038
#	104732
#	123032
#	141788
#	163403
#
# Disc length: 2453 seconds
#
# Revision: 11
# Processed by: cddbd v1.5.2PL0 Copyright (c) Steve Scherf et al.
# Submitted via: EZCDAudioConverter 7.1.5.1
#
DISCID=7c09930a
DTITLE=阿桑 - 寂寞在唱歌
DYEAR=2005
DGENRE=
TTITLE0=寂寞在唱歌
TTITLE1=开车
TTITLE2=疯了
TTITLE3=被动
TTITLE4=保管
TTITLE5=你要离开一些时候
TTITLE6=皮外伤
TTITLE7=一直很安静
TTITLE8=开关
TTITLE9=Angel
EXTD=
EXTT0=
EXTT1=
EXTT2=
EXTT3=
EXTT4=
EXTT5=
EXTT6=
EXTT7=
EXTT8=
EXTT9=
PLAYORDER=
